<?xml version="1.0" encoding="UTF-8"?>
<svg xmlns="http://www.w3.org/2000/svg" viewBox="0 0 200 200" width="200" height="200">
  <!-- QR Code pattern with rounded modules and custom brand color -->
  <g fill="#1F3A5F">
    <!-- Top-left corner squares -->
    <rect x="20" y="20" width="40" height="40" rx="4" ry="4"/>
    <rect x="30" y="30" width="20" height="20" rx="4" ry="4"/>
    <rect x="35" y="35" width="10" height="10" rx="4" ry="4"/>
    
    <!-- Top-right corner squares -->
    <rect x="140" y="20" width="40" height="40" rx="4" ry="4"/>
    <rect x="150" y="30" width="20" height="20" rx="4" ry="4"/>
    <rect x="155" y="35" width="10" height="10" rx="4" ry="4"/>
    
    <!-- Bottom-left corner squares -->
    <rect x="20" y="140" width="40" height="40" rx="4" ry="4"/>
    <rect x="30" y="150" width="20" height="20" rx="4" ry="4"/>
    <rect x="35" y="155" width="10" height="10" rx="4" ry="4"/>
    
    <!-- Data pattern with rounded modules -->
    <rect x="80" y="20" width="8" height="8" rx="4" ry="4"/>
    <rect x="100" y="20" width="8" height="8" rx="4" ry="4"/>
    <rect x="120" y="20" width="8" height="8" rx="4" ry="4"/>
    
    <rect x="20" y="40" width="8" height="8" rx="4" ry="4"/>
    <rect x="40" y="40" width="8" height="8" rx="4" ry="4"/>
    <rect x="60" y="40" width="8" height="8" rx="4" ry="4"/>
    <rect x="80" y="40" width="8" height="8" rx="4" ry="4"/>
    <rect x="100" y="40" width="8" height="8" rx="4" ry="4"/>
    <rect x="120" y="40" width="8" height="8" rx="4" ry="4"/>
    <rect x="140" y="40" width="8" height="8" rx="4" ry="4"/>
    <rect x="160" y="40" width="8" height="8" rx="4" ry="4"/>
    <rect x="180" y="40" width="8" height="8" rx="4" ry="4"/>
    
    <rect x="20" y="60" width="8" height="8" rx="4" ry="4"/>
    <rect x="40" y="60" width="8" height="8" rx="4" ry="4"/>
    <rect x="60" y="60" width="8" height="8" rx="4" ry="4"/>
    <rect x="80" y="60" width="8" height="8" rx="4" ry="4"/>
    <rect x="100" y="60" width="8" height="8" rx="4" ry="4"/>
    <rect x="120" y="60" width="8" height="8" rx="4" ry="4"/>
    <rect x="140" y="60" width="8" height="8" rx="4" ry="4"/>
    <rect x="160" y="60" width="8" height="8" rx="4" ry="4"/>
    <rect x="180" y="60" width="8" height="8" rx="4" ry="4"/>
    
    <rect x="20" y="80" width="8" height="8" rx="4" ry="4"/>
    <rect x="40" y="80" width="8" height="8" rx="4" ry="4"/>
    <rect x="60" y="80" width="8" height="8" rx="4" ry="4"/>
    <rect x="80" y="80" width="8" height="8" rx="4" ry="4"/>
    <rect x="100" y="80" width="8" height="8" rx="4" ry="4"/>
    <rect x="120" y="80" width="8" height="8" rx="4" ry="4"/>
    <rect x="140" y="80" width="8" height="8" rx="4" ry="4"/>
    <rect x="160" y="80" width="8" height="8" rx="4" ry="4"/>
    <rect x="180" y="80" width="8" height="8" rx="4" ry="4"/>
    
    <rect x="20" y="100" width="8" height="8" rx="4" ry="4"/>
    <rect x="40" y="100" width="8" height="8" rx="4" ry="4"/>
    <rect x="60" y="100" width="8" height="8" rx="4" ry="4"/>
    <rect x="80" y="100" width="8" height="8" rx="4" ry="4"/>
    <rect x="100" y="100" width="8" height="8" rx="4" ry="4"/>
    <rect x="120" y="100" width="8" height="8" rx="4" ry="4"/>
    <rect x="140" y="100" width="8" height="8" rx="4" ry="4"/>
    <rect x="160" y="100" width="8" height="8" rx="4" ry="4"/>
    <rect x="180" y="100" width="8" height="8" rx="4" ry="4"/>
    
    <rect x="20" y="120" width="8" height="8" rx="4" ry="4"/>
    <rect x="40" y="120" width="8" height="8" rx="4" ry="4"/>
    <rect x="60" y="120" width="8" height="8" rx="4" ry="4"/>
    <rect x="80" y="120" width="8" height="8" rx="4" ry="4"/>
    <rect x="100" y="120" width="8" height="8" rx="4" ry="4"/>
    <rect x="120" y="120" width="8" height="8" rx="4" ry="4"/>
    <rect x="140" y="120" width="8" height="8" rx="4" ry="4"/>
    <rect x="160" y="120" width="8" height="8" rx="4" ry="4"/>
    <rect x="180" y="120" width="8" height="8" rx="4" ry="4"/>
    
    <rect x="20" y="140" width="8" height="8" rx="4" ry="4"/>
    <rect x="40" y="140" width="8" height="8" rx="4" ry="4"/>
    <rect x="60" y="140" width="8" height="8" rx="4" ry="4"/>
    <rect x="80" y="140" width="8" height="8" rx="4" ry="4"/>
    <rect x="100" y="140" width="8" height="8" rx="4" ry="4"/>
    <rect x="120" y="140" width="8" height="8" rx="4" ry="4"/>
    <rect x="140" y="140" width="8" height="8" rx="4" ry="4"/>
    <rect x="160" y="140" width="8" height="8" rx="4" ry="4"/>
    <rect x="180" y="140" width="8" height="8" rx="4" ry="4"/>
    
    <rect x="20" y="160" width="8" height="8" rx="4" ry="4"/>
    <rect x="40" y="160" width="8" height="8" rx="4" ry="4"/>
    <rect x="60" y="160" width="8" height="8" rx="4" ry="4"/>
    <rect x="80" y="160" width="8" height="8" rx="4" ry="4"/>
    <rect x="100" y="160" width="8" height="8" rx="4" ry="4"/>
    <rect x="120" y="160" width="8" height="8" rx="4" ry="4"/>
    <rect x="140" y="160" width="8" height="8" rx="4" ry="4"/>
    <rect x="160" y="160" width="8" height="8" rx="4" ry="4"/>
    <rect x="180" y="160" width="8" height="8" rx="4" ry="4"/>
    
    <rect x="20" y="180" width="8" height="8" rx="4" ry="4"/>
    <rect x="40" y="180" width="8" height="8" rx="4" ry="4"/>
    <rect x="60" y="180" width="8" height="8" rx="4" ry="4"/>
    <rect x="80" y="180" width="8" height="8" rx="4" ry="4"/>
    <rect x="100" y="180" width="8" height="8" rx="4" ry="4"/>
    <rect x="120" y="180" width="8" height="8" rx="4" ry="4"/>
    <rect x="140" y="180" width="8" height="8" rx="4" ry="4"/>
    <rect x="160" y="180" width="8" height="8" rx="4" ry="4"/>
    <rect x="180" y="180" width="8" height="8" rx="4" ry="4"/>
  </g>
</svg>
